# AST/ASF file generated using VICON BodyLanguage
# -----------------------------------------------
:version 1.10
:name VICON
:units
  mass 1.0
  length 0.45
  angle deg
:documentation
   .ast/.asf automatically generated from VICON data using
   VICON BodyBuilder and BodyLanguage model FoxedUp or BRILLIANT.MOD
:root
   order TX TY TZ RX RY RZ
   axis XYZ
   position 0 0 0  
   orientation 0 0 0 
:bonedata
  begin
     id 1 
     name lhipjoint
     direction 0.612567 -0.751349 0.245431 
     length 2.42285 
     axis 0 0 0  XYZ
  end
  begin
     id 2 
     name lfemur
     direction 0.34202 -0.939693 0  
     length 7.11304  
     axis 0 0 20  XYZ
    dof rx ry rz
    limits (-160.0 20.0)
           (-70.0 70.0)
           (-60.0 70.0)
  end
  begin
     id 3 
     name ltibia
     direction 0.34202 -0.939693 0   
     length 7.84529   
     axis 0 0 20   XYZ
    dof rx
    limits (-10.0 170.0)
  end
  begin
     id 4 
     name lfoot
     direction 0.0779239 -0.214094 0.9737   
     length 1.97176   
     axis -90 7.62852e-016 20   XYZ
    dof rx rz
    limits (-45.0 90.0)
           (-70.0 20.0)
  end
  begin
     id 5 
     name ltoes
     direction 1.53565e-011 -4.21709e-011 1   
     length 0.993197   
     axis -90 7.62852e-016 20   XYZ
    dof rx
    limits (-90.0 20.0)
  end
  begin
     id 6 
     name rhipjoint
     direction -0.665722 -0.709315 0.231701   
     length 2.56642  
     axis 0 0 0  XYZ 
  end
  begin
     id 7 
     name rfemur
     direction -0.34202 -0.939693 0   
     length 7.32108   
     axis 0 0 -20   XYZ
    dof rx ry rz
    limits (-160.0 20.0)
           (-70.0 70.0)
           (-70.0 60.0)
  end
  begin
     id 8 
     name rtibia
     direction -0.34202 -0.939693 0   
     length 7.81254   
     axis 0 0 -20   XYZ
    dof rx
    limits (-10.0 170.0)
 end
 begin
     id 9 
     name rfoot
     direction -0.0832806 -0.228812 0.969902   
     length 2.08278  
     axis -90 -7.62852e-016 -20   XYZ
    dof rx rz
    limits (-45.0 90.0)
           (-20.0 70.0)
  end
  begin
     id 10 
     name rtoes
     direction -1.53589e-011 -4.22086e-011 1   
     length 1.04609   
     axis -90 -7.62852e-016 -20   XYZ
    dof rx
    limits (-90.0 20.0)
  end
  begin
     id 11 
     name lowerback
     direction -0.00506013 0.988403 -0.151766   
     length 2.01978   
     axis 0 0 0   XYZ
    dof rx ry rz
    limits (-20.0 45.0)
           (-30.0 30.0)
           (-30.0 30.0)
  end
  begin
     id 12 
     name upperback
     direction -0.00836389 0.99968 0.0238859   
     length 2.01276   
     axis 0 0 0   XYZ
    dof rx ry rz
    limits (-20.0 45.0)
           (-30.0 30.0)
           (-30.0 30.0)
  end
  begin
     id 13 
     name thorax
     direction -0.00684136 0.995386 0.0957043   
     length 2.07303   
     axis 0 0 0   XYZ
    dof rx ry rz
    limits (-20.0 45.0)
           (-30.0 30.0)
           (-30.0 30.0)
  end
  begin
     id 14 
     name lowerneck
     direction -0.0161045 0.999661 0.0204485   
     length 1.91243   
     axis 0 0 0   XYZ
    dof rx ry rz
    limits (-20.0 45.0)
           (-30.0 30.0)
           (-30.0 30.0)
  end
  begin
     id 15 
     name upperneck
     direction 0.0553583 0.990946 -0.122319   
     length 1.91574   
     axis 0 0 0   XYZ
    dof rx ry rz
    limits (-20.0 45.0)
           (-30.0 30.0)
           (-30.0 30.0)
  end
  begin
     id 16
     name head
     direction 0.0180273 0.998839 -0.0446756  
     length 1.92693  
     axis 0 0 0   XYZ
    dof rx ry rz
    limits (-20.0 45.0)
           (-30.0 30.0)
           (-30.0 30.0)
  end
  begin
     id 17 
     name lclavicle
     direction 0.945646 0.319323 -0.0615358  
     length 4.0076  
     axis 0 0 0   XYZ
    dof ry rz
    limits (-20.0 10.0)
           (0.0 20.0)
  end
  begin
     id 18 
     name lhumerus
     direction 1 -4.48967e-011 -2.79996e-027   
     length 5.64147   
     axis 180 -30 -90   XYZ
    dof rx ry rz
    limits (-60.0 90.0)
           (-90.0 90.0)
           (-90.0 90.0)
  end
  begin
     id 19
     name lradius
     direction 1 -4.48976e-011 -9.5122e-027   
     length 2.86444   
     axis 180 -30 -90   XYZ
    dof rx
    limits (-10.0 170.0)
  end
  begin
     id 20
     name lwrist
     direction 1 -4.48983e-011 -1.24047e-026   
     length 1.43222   
     axis 9.05591e-015 90 90   XYZ
    dof ry
    limits (-180.0 0.0)
 end
  begin
     id 21 
     name lhand
     direction 1 -4.4892e-011 -2.48094e-026   
     length 0.722123   
     axis 1.58305e-014 90 90   XYZ
    dof rx rz
    limits (-90.0 90.0)
           (-45.0 45.0)
  end
  begin
     id 22 
     name lfingers
     direction 1 -4.48895e-011 -4.96187e-026   
     length 0.582194   
     axis 3.1661e-014 90 90   XYZ
    dof rx
    limits (0.0 90.0)
  end
  begin
     id 23
     name lthumb
     direction 0.707107 -6.34961e-011 0.707107   
     length 0.835918   
     axis -90 45 2.85299e-015   XYZ
    dof rx rz
    limits (-45.0 45.0)
           (-45.0 45.0)
  end
  begin
     id 24 
     name rclavicle
     direction -0.932635 0.324218 -0.15835   
     length 3.65819  
     axis 0 0 0   XYZ 
    dof ry rz
    limits (-10.0 20.0)
           (-20.0 0.0)
  end
  begin
     id 25 
     name rhumerus
     direction -1 -4.48965e-011 -4.02296e-027  
     length 5.44729   
     axis 180 30 90   XYZ
    dof rx ry rz
    limits (-90.0 60.0)
           (-90.0 90.0)
           (-90.0 90.0)
  end
  begin
     id 26 
     name rradius
     direction -1 -4.48957e-011 -8.81087e-027   
     length 3.08821   
     axis 180 30 90   XYZ
    dof rx
    limits (-10.0 170.0)
  end
  begin
     id 27 
     name rwrist
     direction -1 -4.49015e-011 -1.24047e-026   
     length 1.5441   
     axis 9.05591e-015 -90 -90   XYZ
    dof ry
    limits (-180.0 0.0)
  end
  begin
     id 28
     name rhand
     direction -1 -4.4891e-011 -2.48094e-026   
     length 0.821049   
     axis 1.58305e-014 -90 -90   XYZ
    dof rx rz
    limits (-90.0 90.0)
           (-45.0 45.0)
  end
  begin
     id 29
     name rfingers
     direction -1 -4.48985e-011 -4.96187e-026   
     length 0.661951   
     axis 3.1661e-014 -90 -90   XYZ
    dof rx
    limits (0.0 90.0)
  end
  begin
     id 30
     name rthumb
     direction -0.707107 -6.34906e-011 0.707107   
     length 0.950433   
     axis -90 -45 -2.85299e-015   XYZ
    dof rx rz
    limits (-45.0 45.0)
           (-45.0 45.0)
  end
:hierarchy
  begin
    root lhipjoint rhipjoint lowerback
    lhipjoint lfemur
    lfemur ltibia
    ltibia lfoot
    lfoot ltoes
    rhipjoint rfemur
    rfemur rtibia
    rtibia rfoot
    rfoot rtoes
    lowerback upperback
    upperback thorax
    thorax lowerneck lclavicle rclavicle
    lowerneck upperneck
    upperneck head
    lclavicle lhumerus
    lhumerus lradius
    lradius lwrist
    lwrist lhand lthumb
    lhand lfingers
    rclavicle rhumerus
    rhumerus rradius
    rradius rwrist
    rwrist rhand rthumb
    rhand rfingers
  end

#!OML:ASF F:\VICON\USERDATA\INSTALL\rory3\rory3.ASF
:FULLY-SPECIFIED
:DEGREES
3075
root 3.1785 17.659 0.0399825 -561.186 95.023 -559.99
lowerback 3.48189 -0.455866 -1.1195
upperback -4.79552 -0.81557 -3.8895
thorax -7.00764 -0.412641 -3.37834
lowerneck -5.27634 4.07618 -2.98772
upperneck 11.051 4.29607 18.6483
head 3.63592 3.16762 6.48402
rclavicle 3.00165e-014 -4.77083e-015
rhumerus -30.3668 -19.0196 -62.747
rradius 86.94
rwrist 23.5789
rhand -27.4232 6.14168
rfingers 7.12502
rthumb -0.828828 -23.8365
lclavicle 3.00165e-014 -4.77083e-015
lhumerus -24.6541 4.06854 66.527
lradius 102.721
lwrist 14.8279
lhand -36.4631 4.08129
lfingers 7.12502
lthumb -9.55662 33.8446
rfemur 0.678262 2.6682 19.3221
rtibia 14.6536
rfoot -15.5458 -0.505007
rtoes -1.58586
lfemur 2.79407 1.40441 -15.9263
ltibia 11.8944
lfoot -14.9093 3.13107
ltoes -1.6309
3076
root 3.1803 17.6598 0.0355069 -561.22 94.7832 -560.067
lowerback 3.42534 -0.443939 -1.05727
upperback -4.79278 -0.790919 -3.82827
thorax -6.97005 -0.40229 -3.35072
lowerneck -5.34155 4.02486 -2.96772
upperneck 11.0473 4.22044 18.6963
head 3.65456 3.13753 6.49647
rclavicle -9.93923e-016 2.8625e-014
rhumerus -30.1608 -19.2687 -62.6245
rradius 86.9794
rwrist 23.6688
rhand -27.3409 6.46356
rfingers 7.12502
rthumb -0.749342 -23.5149
lclavicle -9.93923e-016 2.8625e-014
lhumerus -24.591 3.98368 66.4923
lradius 102.827
lwrist 14.5503
lhand -36.6299 3.21845
lfingers 7.12502
lthumb -9.71756 32.9743
rfemur 0.723509 2.64929 19.2352
rtibia 14.5792
rfoot -15.6106 -0.689711
rtoes -1.52795
lfemur 2.72963 1.34746 -16.0153
ltibia 11.8595
lfoot -14.8519 2.90971
ltoes -0.695546
3077
root 3.18084 17.6606 0.0306656 -562.006 94.5984 -560.901
lowerback 3.384 -0.44725 -0.906061
upperback -4.7853 -0.780455 -3.72402
thorax -6.93733 -0.403064 -3.32641
lowerneck -5.38995 4.01401 -3.00881
upperneck 11.0293 4.20819 18.7205
head 3.65733 3.13196 6.51198
rclavicle 1.59028e-014 7.95139e-015
rhumerus -29.9835 -19.3974 -62.5552
rradius 87.0039
rwrist 23.768
rhand -27.3136 6.72231
rfingers 7.12502
rthumb -0.722937 -23.2562
lclavicle 1.59028e-014 7.95139e-015
lhumerus -24.6084 3.89639 66.5091
lradius 102.859
lwrist 14.3148
lhand -36.9737 2.34249
lfingers 7.12502
lthumb -10.0493 32.0826
rfemur 0.749065 2.57857 19.2226
rtibia 14.4879
rfoot -15.6453 -0.69893
rtoes -1.71407
lfemur 2.6321 1.35226 -16.0167
ltibia 11.8646
lfoot -14.7788 2.7228
ltoes -0.0717074
3078
root 3.18256 17.6613 0.0246223 -563.11 94.4657 -562.015
lowerback 3.38295 -0.440038 -0.692348
upperback -4.80263 -0.754458 -3.63697
thorax -6.95508 -0.400146 -3.35762
lowerneck -5.26557 4.00732 -3.0303
upperneck 10.8692 4.22314 18.7557
head 3.58478 3.12645 6.51717
rclavicle 2.18663e-015 -3.18055e-014
rhumerus -29.9537 -19.318 -62.5951
rradius 87.0165
rwrist 23.5844
rhand -27.739 6.55382
rfingers 7.12502
rthumb -1.13381 -23.4229
lclavicle 2.18663e-015 -3.18055e-014
lhumerus -24.7248 3.71378 66.6192
lradius 102.822
lwrist 14.2078
lhand -37.6585 1.65489
lfingers 7.12502
lthumb -10.7099 31.3619
rfemur 0.804914 2.50543 19.2362
rtibia 14.4199
rfoot -15.6827 -0.733962
rtoes -1.84139
lfemur 2.58084 1.49849 -15.9698
ltibia 11.8798
lfoot -14.7212 2.50313
ltoes -0.327656
3079
root 3.1832 17.6618 0.0200767 -563.858 94.3291 -562.77
lowerback 3.37884 -0.407306 -0.552758
upperback -4.8157 -0.699437 -3.5751
thorax -6.96426 -0.379306 -3.37632
lowerneck -5.10985 3.96808 -2.99122
upperneck 10.6859 4.19391 18.7853
head 3.50712 3.09951 6.50739
rclavicle -2.18663e-015 1.59028e-015
rhumerus -30.0812 -19.3068 -62.5963
rradius 87.0556
rwrist 23.3358
rhand -27.917 6.6876
rfingers 7.12502
rthumb -1.30578 -23.2881
lclavicle -2.18663e-015 1.59028e-015
lhumerus -24.8342 3.50995 66.7884
lradius 102.713
lwrist 14.1242
lhand -38.0836 0.953415
lfingers 7.12502
lthumb -11.1199 30.6388
rfemur 0.860445 2.46053 19.2226
rtibia 14.3539
rfoot -15.6634 -0.911243
rtoes -2.1626
lfemur 2.53047 1.45382 -15.9803
ltibia 11.9151
lfoot -14.7178 2.40111
ltoes -0.0508697
3080
root 3.18158 17.662 0.0165717 -564.706 94.1909 -563.607
lowerback 3.4162 -0.369466 -0.429524
upperback -4.79794 -0.63915 -3.49987
thorax -6.96366 -0.354857 -3.37179
lowerneck -5.06545 3.89298 -3.01419
upperneck 10.5714 4.10706 18.8221
head 3.47406 3.05006 6.51557
rclavicle -4.17448e-015 2.54444e-014
rhumerus -30.1849 -19.4675 -62.5856
rradius 87.002
rwrist 23.2673
rhand -27.7463 7.32245
rfingers 7.12502
rthumb -1.14092 -22.6542
lclavicle -4.17448e-015 2.54444e-014
lhumerus -25.0112 3.27814 67.0264
lradius 102.56
lwrist 14.084
lhand -38.2927 0.30594
lfingers 7.12502
lthumb -11.3216 29.9804
rfemur 0.919596 2.40397 19.2227
rtibia 14.2978
rfoot -15.6474 -1.09457
rtoes -2.65672
lfemur 2.47918 1.36047 -15.9912
ltibia 11.9723
lfoot -14.7292 2.32554
ltoes 0.137731
3081
root 3.17979 17.6625 0.0127723 -564.953 94.0584 -563.858
lowerback 3.42567 -0.335795 -0.315015
upperback -4.78585 -0.584896 -3.44643
thorax -6.95353 -0.333173 -3.38483
lowerneck -5.09923 3.8048 -2.97295
upperneck 10.5746 3.98367 18.781
head 3.49759 2.99062 6.4936
rclavicle 6.75868e-015 -3.18055e-015
rhumerus -30.2951 -19.5785 -62.6823
rradius 86.8763
rwrist 23.202
rhand -27.7046 7.78693
rfingers 7.12502
rthumb -1.10059 -22.19
lclavicle 6.75868e-015 -3.18055e-015
lhumerus -25.3046 3.02966 67.2746
lradius 102.417
lwrist 14.185
lhand -38.4498 -0.166919
lfingers 7.12502
lthumb -11.4731 29.4991
rfemur 0.938984 2.34887 19.1706
rtibia 14.2668
rfoot -15.6614 -1.12177
rtoes -2.75465
lfemur 2.3942 1.3815 -16.0322
ltibia 12.0345
lfoot -14.6989 2.19348
ltoes 0.0852314
3082
root 3.17851 17.6606 0.00983441 -565.864 93.9271 -564.729
lowerback 3.49251 -0.326355 -0.18733
upperback -4.77032 -0.563467 -3.3831
thorax -6.97487 -0.328574 -3.39203
lowerneck -5.10414 3.74257 -2.88857
upperneck 10.5895 3.89315 18.7235
head 3.51721 2.94778 6.45914
rclavicle -2.18663e-015 2.22639e-014
rhumerus -30.3737 -19.5403 -62.9149
rradius 86.672
rwrist 23.0667
rhand -27.842 7.9837
rfingers 7.12502
rthumb -1.23334 -21.9925
lclavicle -2.18663e-015 2.22639e-014
lhumerus -25.623 2.9405 67.5685
lradius 102.194
lwrist 14.1388
lhand -38.2737 -0.338559
lfingers 7.12502
lthumb -11.3032 29.3369
rfemur 0.998801 2.3577 19.1704
rtibia 14.2736
rfoot -15.761 -1.11159
rtoes -2.56216
lfemur 2.37156 1.43176 -16.0225
ltibia 12.0868
lfoot -14.6338 2.02347
ltoes 0.174407
3083
root 3.17847 17.6586 0.00847097 -566.835 93.7941 -565.65
lowerback 3.53584 -0.317177 -0.0628826
upperback -4.72309 -0.542261 -3.33533
thorax -6.94893 -0.323861 -3.41319
lowerneck -5.15396 3.65055 -2.90957
upperneck 10.5808 3.76479 18.7842
head 3.53635 2.88962 6.48055
rclavicle 3.77691e-015 -2.38542e-014
rhumerus -30.4876 -19.434 -63.246
rradius 86.4802
rwrist 22.7921
rhand -28.1231 8.04299
rfingers 7.12502
rthumb -1.50478 -21.9315
lclavicle 3.77691e-015 -2.38542e-014
lhumerus -25.8649 2.95736 67.8708
lradius 101.85
lwrist 14.1117
lhand -37.7191 -0.437953
lfingers 7.12502
lthumb -10.7684 29.266
rfemur 1.06642 2.34926 19.1757
rtibia 14.3164
rfoot -15.8927 -1.16748
rtoes -2.57308
lfemur 2.39087 1.50496 -16.0099
ltibia 12.1137
lfoot -14.5528 1.90296
ltoes -0.277915
3084
root 3.17856 17.6574 0.00644788 -567.361 93.644 -566.1
lowerback 3.57938 -0.29631 0.0325294
upperback -4.66084 -0.507829 -3.30586
thorax -6.90619 -0.311245 -3.43834
lowerneck -5.20823 3.52126 -2.96657
upperneck 10.5666 3.58764 18.8571
head 3.55924 2.80654 6.51065
rclavicle 8.15017e-015 -2.70347e-014
rhumerus -30.6667 -19.3414 -63.5763
rradius 86.2681
rwrist 22.457
rhand -28.3196 7.9789
rfingers 7.12502
rthumb -1.69461 -21.9941
lclavicle 8.15017e-015 -2.70347e-014
lhumerus -26.1304 2.935 68.229
lradius 101.293
lwrist 14.1668
lhand -37.2319 -0.475843
lfingers 7.12502
lthumb -10.2984 29.252
rfemur 1.14815 2.24244 19.1288
rtibia 14.3733
rfoot -15.9687 -1.20743
rtoes -2.72338
lfemur 2.43757 1.53317 -16.0416
ltibia 12.1341
lfoot -14.52 1.73066
ltoes -0.144866
3085
root 3.17663 17.6561 0.00585243 -567.19 93.428 -565.812
lowerback 3.69666 -0.288187 0.00484296
upperback -4.59798 -0.500645 -3.29003
thorax -6.90605 -0.306247 -3.40621
lowerneck -5.2065 3.39356 -2.87868
upperneck 10.5438 3.41331 18.7668
head 3.57682 2.71824 6.46088
rclavicle 3.97569e-016 0
rhumerus -30.9006 -19.2591 -63.9376
rradius 86.0252
rwrist 22.1969
rhand -28.4935 7.9467
rfingers 7.12502
rthumb -1.86253 -22.0249
lclavicle 3.97569e-016 0
lhumerus -26.503 2.93008 68.6264
lradius 100.741
lwrist 14.6114
lhand -36.8957 -0.603004
lfingers 7.12502
lthumb -9.97398 29.1407
rfemur 1.26955 2.18299 19.0211
rtibia 14.4408
rfoot -16.064 -1.33566
rtoes -3.02978
lfemur 2.5124 1.5892 -16.1416
ltibia 12.1483
lfoot -14.4322 1.54081
ltoes -0.455256
3086
root 3.173 17.6551 0.00525404 -568.305 93.2371 -566.826
lowerback 3.84157 -0.279818 0.0513158
upperback -4.55327 -0.487435 -3.23619
thorax -6.94119 -0.301786 -3.37684
lowerneck -5.14931 3.23189 -2.88037
upperneck 10.4749 3.20541 18.6911
head 3.57191 2.60501 6.4268
rclavicle -4.37326e-015 1.90833e-014
rhumerus -31.1536 -19.148 -64.3081
rradius 85.7305
rwrist 22.1103
rhand -28.7377 7.88607
rfingers 7.12502
rthumb -2.09835 -22.0834
lclavicle -4.37326e-015 1.90833e-014
lhumerus -26.9493 2.86249 69.1341
lradius 100.256
lwrist 15.5403
lhand -36.9491 -0.850498
lfingers 7.12502
lthumb -10.0256 28.8907
rfemur 1.37395 2.21728 19.0182
rtibia 14.5071
rfoot -16.2574 -1.4969
rtoes -2.90837
lfemur 2.57533 1.52142 -16.1663
ltibia 12.1452
lfoot -14.381 1.42563
ltoes -0.41319
